<svg xmlns="http://www.w3.org/2000/svg" viewBox="0 0 750 500"><g id="freepik--background-complete--inject-2"><path d="M235.79,484.28c-.68-13.58-1.54-25.69-9.6-36.64s-26-15.66-35.26-5.73c1.54-16.82-8.5-34.09-23.88-41.09s-35-3.23-46.68,9c-4-15.31-20.67-13.56-36.46-14.52S50.55,416,44.82,443.2c0,0-9.6,40.32-8.46,40.7S235.79,484.28,235.79,484.28Z" style="fill:#f5f5f5"></path><path d="M557.07,454c-7.92-9.8-23.23-14.69-33.47-7.36a36.13,36.13,0,0,0-50.74-29.22c1.53-18.88-12.94-37.72-31.58-41.11s-38.82,9.13-44,27.33c-26.57-3.4-54,16.61-58.91,42.95a39.63,39.63,0,0,0-36,3.86c-10.43,7-18.22,21.54-18.4,34.08L568,484.28C566.63,471.77,565,463.81,557.07,454Z" style="fill:#ebebeb"></path><path d="M436.77,14.49,428.62,99.7s-.37,5.89-5.89,7.41-11.35-22.3-11.35-22.3l-5.73,2.52L419,117.23l7.06,23.69,3.83,58.15-9.26,285.26,30.9.09S448.27,212.86,449,201.09s24.76-46.33,24.76-46.33L473,147l-25.06,33.68L461.1,14.5Z" style="fill:#e0e0e0"></path><path d="M44.53,14S62,115.12,67.2,128.73s10.47,29.33,10.47,29.33l37.45-67.42,6.2,3.35L82.91,169.58s21,25.13,22,47.13,0,58.65,0,58.65l18.64,209.13H93.38V276.41s6.29-53.42,3.14-62.84-20.94-39.8-20.94-39.8S56.49,149.68,54,125.59,36.36,14,36.36,14Z" style="fill:#e0e0e0"></path><path d="M282.05,14.65S258.29,67.43,254.72,96l-15.1-39.78c-5.33,4,10.64,56.76,10.64,56.76s-12,59-11.8,89.38-.08,151.06-.08,151.06L209.59,484.64l32.62.11s14.15-112.52,13.26-124.14-.8-160.89-.8-160.89,6.25-70.62,11.6-91.17S304.1,14.66,304.1,14.66Z" style="fill:#ebebeb"></path><path d="M682.79,14.28s-20.41,51.8-22.46,80.39L643.15,56c-5.11,4.28,13.63,55.81,13.63,55.81s-8.86,59.23-7.07,89.4,7.91,150,7.91,150L635.79,483l32.58-1.62s8.19-112.51,6.69-124-9.31-159.75-9.31-159.75,2.52-70.47,6.77-91.17,31.23-92.21,31.23-92.21Z" style="fill:#ebebeb"></path><path d="M136.28,135.87c-11.7,2.58-21,13.69-21.37,25.66,11.94-1.42,21.85-12.75,21.68-24.78" style="fill:#f5f5f5"></path><path d="M561.63,40.89a18.25,18.25,0,0,0,17.38,13,16.56,16.56,0,0,0-16.82-13.25" style="fill:#e0e0e0"></path><path d="M587.2,104.55a19.85,19.85,0,0,0,23.6.38c-6.08-5.94-16.72-6.37-23.25-.94" style="fill:#f5f5f5"></path><path d="M221.21,185.46a15.67,15.67,0,0,0,9.6,16,14.21,14.21,0,0,0-9.08-16" style="fill:#e0e0e0"></path><path d="M151.77,176.16a15.68,15.68,0,0,0,9.6,16,14.21,14.21,0,0,0-9.08-16" style="fill:#e0e0e0"></path><path d="M396.06,47.27a15.67,15.67,0,0,0,2.87,18.41,14.21,14.21,0,0,0-2.39-18.21" style="fill:#e0e0e0"></path><path d="M368.93,105.93A42.16,42.16,0,0,1,335.8,37.67a42.17,42.17,0,1,0,61.93,56.89A42,42,0,0,1,368.93,105.93Z" style="fill:#e0e0e0"></path><path d="M223.15,69.37l3.47,1.31L223.23,72a3.64,3.64,0,0,0-2.11,2.15L220,77.31l-1.06-3.16a3.63,3.63,0,0,0-2.17-2.23l-3.41-1.24,3.36-1.23a3.59,3.59,0,0,0,2.16-2.2L220,64l1,3.1A3.59,3.59,0,0,0,223.15,69.37Z" style="fill:#e0e0e0"></path><path d="M496.67,107.82l3.46,1.31-3.38,1.28a3.6,3.6,0,0,0-2.12,2.15l-1.14,3.2-1.06-3.16a3.63,3.63,0,0,0-2.17-2.23l-3.4-1.24,3.36-1.23a3.64,3.64,0,0,0,2.16-2.2l1.11-3.21,1,3.1A3.58,3.58,0,0,0,496.67,107.82Z" style="fill:#e0e0e0"></path><path d="M509.45,72.88l1.73.65-1.69.64a1.82,1.82,0,0,0-1.06,1.08l-.57,1.6-.53-1.58a1.79,1.79,0,0,0-1.08-1.12l-1.71-.62,1.68-.61a1.83,1.83,0,0,0,1.09-1.1l.55-1.61.52,1.55A1.78,1.78,0,0,0,509.45,72.88Z" style="fill:#e0e0e0"></path><path d="M201.1,108.25l1.73.66-1.69.64a1.81,1.81,0,0,0-1.06,1.07l-.57,1.6-.53-1.58a1.79,1.79,0,0,0-1.09-1.11l-1.7-.62,1.68-.62a1.78,1.78,0,0,0,1.08-1.1l.56-1.6.51,1.55A1.8,1.8,0,0,0,201.1,108.25Z" style="fill:#e0e0e0"></path><path d="M363.08,53.26l1.73.65-1.69.65a1.81,1.81,0,0,0-1.06,1.07l-.57,1.6L361,55.65a1.8,1.8,0,0,0-1.08-1.11l-1.7-.63,1.68-.61a1.84,1.84,0,0,0,1.08-1.1l.55-1.6.52,1.54A1.78,1.78,0,0,0,363.08,53.26Z" style="fill:#e0e0e0"></path></g><g id="freepik--Character--inject-2"><path d="M308,169.14c2.7-2.42,2.67-6.16,1.81-9.33,2.78-2,4.53-6.39,1.24-8.82,5.18-3.3,0-10.51-5.26-8.62,1.93-5.61-8.35-7.36-10.58-3.14-2.29-4.6-9.73-.78-10,3.53-2-1.34-5.8-1.45-6.26,1.48-1.57-2.3-7.55-1.54-6.79,1.9-4.09-1-6,5.1-2.17,6.71a4.55,4.55,0,0,0,.73,7.65c-1.81.81-.11,3,1.47,2.73.75,5.31-1.88,13.78,4.2,16.49" style="fill:#263238"></path><path d="M275.75,198.82l7.1,9.8,10,10.37,6.15-8.07c.09-3.78.28-11.46.37-15.2,13.2-1.22,9.46-18.53,9.3-32.12a17.18,17.18,0,0,0-17.33-16.42c-9.56.19-14.75,8.42-14.29,18l-1.26,30.64" style="fill:#ffbe9d"></path><path d="M299.34,195.71a21.35,21.35,0,0,1-11.83-3.86s2.57,6.71,11.76,6.24Z" style="fill:#eb996e"></path><path d="M305.92,171c0,1.61-2.64,1.69-2.62,0S305.94,169.34,305.92,171Z" style="fill:#263238"></path><path d="M306.64,167.53a7.29,7.29,0,0,0-5.16-.22C302,165.58,306.34,165.72,306.64,167.53Z" style="fill:#263238"></path><path d="M292.66,170.09c0,1.61-2.64,1.69-2.62,0S292.68,168.45,292.66,170.09Z" style="fill:#263238"></path><path d="M292.6,166.59a7.31,7.31,0,0,0-5.15.34C287.75,165.16,292.1,164.83,292.6,166.59Z" style="fill:#263238"></path><path d="M297.33,178.39c-.36-.21,2.61,0,3.08-.65-.44-2.47-3.74-11.11-3.27-11.12.16-.05,1.36,3.11,2.69,7.08.33,1.5,1.26,2.69,1.05,4.21C300.49,178.94,297.16,178.37,297.33,178.39Z" style="fill:#263238"></path><path d="M293.19,161.59a33.88,33.88,0,0,1-6.44.46C287.27,160.16,292.4,159.79,293.19,161.59Z" style="fill:#263238"></path><path d="M306.6,161.28a20.51,20.51,0,0,1-4.76-.33C302,159.13,306.66,159.45,306.6,161.28Z" style="fill:#263238"></path><path d="M307.12,147.7l-.64-.3c2.23-6-6.86-8.29-9.3-3a5,5,0,0,0-5.73-2.52c-2.34.41-3.45,3.21-5.48,4-6.88-7.49-18.8,5.72-11.65,10.48a5.39,5.39,0,0,0,2.21,8.21c2.48,7.79,13.53,1.23,7.88-4.68a5.26,5.26,0,0,0,7.36-4.14c1.92,2.88,10.53,3.14,8.22-1.66C304,156.2,308.78,151.9,307.12,147.7Z" style="fill:#263238"></path><path d="M280.78,166.68c.2,2.5.18,11.47-4,7.78-1.5-3.45-.78-7.55-.89-11.25" style="fill:#263238"></path><path d="M277.5,172c-8.93-3.09-7.76,11.69,0,9C277.52,180.83,277.5,172,277.5,172Z" style="fill:#ffbe9d"></path><path d="M275.6,178.62c-2.71,1.83-3.21-5.89-.56-4.37.27.89.31-.83-.68-.61C271.47,174.15,273.17,181,275.6,178.62Z" style="fill:#eb996e"></path><path d="M271.88,454.63l.44,18.89s-19.06,6.79-19.32,10.29l36.66.47.53-29.46Z" style="fill:#0B87DA"></path><g style="opacity:0.6000000000000001"><path d="M283.67,472.08a1.5,1.5,0,0,1,1,1.72,1.44,1.44,0,0,1-1.7,1,1.57,1.57,0,0,1-1.06-1.83,1.48,1.48,0,0,1,1.88-.86" style="fill:#fff"></path></g><g style="opacity:0.6000000000000001"><path d="M289.66,484.28l-.06-3-35.13.66s-1.64.69-1.47,1.84Z" style="fill:#fff"></path></g><path d="M271.73,473.33c0,.18.89.27,1.77.86s1.33,1.34,1.49,1.27-.08-1.1-1.15-1.79S271.69,473.16,271.73,473.33Z" style="fill:#263238"></path><path d="M267.86,474.87c0,.17.73.49,1.33,1.25s.76,1.57.94,1.57.3-1-.46-2S267.87,474.7,267.86,474.87Z" style="fill:#263238"></path><path d="M265.62,479.44c.16,0,.42-.85,0-1.83s-1.28-1.39-1.35-1.24.43.68.78,1.49S265.44,479.42,265.62,479.44Z" style="fill:#263238"></path><path d="M272.1,469c.08.17.9-.07,1.91,0s1.8.41,1.89.26-.65-.8-1.84-.88S272,468.87,272.1,469Z" style="fill:#263238"></path><g style="opacity:0.30000000000000004"><polygon points="271.97 458.37 272.05 461.74 290.06 461.81 290.14 457.92 271.97 458.37"></polygon></g><path d="M272.09,465.2a3.48,3.48,0,0,0,1.83,0,8.13,8.13,0,0,0,1.93-.56,7.66,7.66,0,0,0,1.06-.55,2.15,2.15,0,0,0,.56-.42.79.79,0,0,0,.1-.95,1,1,0,0,0-.78-.42,2.38,2.38,0,0,0-.69.08,7.38,7.38,0,0,0-1.15.38,6.72,6.72,0,0,0-1.71,1.09c-.86.78-1.16,1.44-1.1,1.48s.51-.5,1.38-1.14a7.88,7.88,0,0,1,1.65-.9,7.76,7.76,0,0,1,1.06-.31c.39-.1.72-.1.82.08s0,.09-.05.2a1.41,1.41,0,0,1-.41.31,10.88,10.88,0,0,1-1,.55,10.61,10.61,0,0,1-1.78.65A11.58,11.58,0,0,0,272.09,465.2Z" style="fill:#263238"></path><path d="M272.32,465.46a3,3,0,0,0,.5-1.77,5.78,5.78,0,0,0-.68-3.13,1.48,1.48,0,0,0-1.15-.94.86.86,0,0,0-.78.5,2.79,2.79,0,0,0-.2.67,4,4,0,0,0,0,1.24,4.07,4.07,0,0,0,.76,1.9c.7,1,1.45,1.19,1.46,1.12s-.56-.44-1.09-1.36a4.11,4.11,0,0,1-.56-1.73,3.81,3.81,0,0,1,.05-1.06c.06-.39.21-.7.35-.66s.49.3.64.61a6.22,6.22,0,0,1,.44,1,6.7,6.7,0,0,1,.33,1.84C272.42,464.76,272.22,465.43,272.32,465.46Z" style="fill:#263238"></path><path d="M336.17,454.77l-.71,18.88s19,7.07,19.16,10.57L318,484.16l-.1-29.47Z" style="fill:#0B87DA"></path><g style="opacity:0.6000000000000001"><path d="M324.13,472.05a1.5,1.5,0,0,0-1,1.7,1.44,1.44,0,0,0,1.68,1.05,1.59,1.59,0,0,0,1.09-1.82,1.5,1.5,0,0,0-1.87-.89" style="fill:#fff"></path></g><g style="opacity:0.6000000000000001"><path d="M318,484.16l.11-3,35.11,1.17s1.63.71,1.44,1.86Z" style="fill:#fff"></path></g><path d="M336.06,473.47c0,.18-.91.26-1.79.83s-1.35,1.33-1.51,1.26.1-1.11,1.18-1.78S336.09,473.3,336.06,473.47Z" style="fill:#263238"></path><path d="M339.9,475.07c0,.17-.74.47-1.35,1.23s-.78,1.56-1,1.55-.29-1,.48-2S339.89,474.9,339.9,475.07Z" style="fill:#263238"></path><path d="M342.07,479.67c-.16,0-.41-.85.06-1.83s1.29-1.37,1.37-1.22-.44.67-.81,1.48S342.25,479.66,342.07,479.67Z" style="fill:#263238"></path><path d="M335.74,469.15c-.08.16-.9-.09-1.91,0s-1.8.38-1.89.23.66-.79,1.86-.85S335.83,469,335.74,469.15Z" style="fill:#263238"></path><g style="opacity:0.30000000000000004"><polygon points="336.03 458.51 335.9 461.88 317.88 461.68 317.86 457.8 336.03 458.51"></polygon></g><path d="M335.81,465.34a3.47,3.47,0,0,1-1.83,0,8.12,8.12,0,0,1-1.92-.59,9,9,0,0,1-1.06-.56,2.24,2.24,0,0,1-.55-.43.79.79,0,0,1-.08-1,1,1,0,0,1,.78-.41,2.72,2.72,0,0,1,.69.1,7.26,7.26,0,0,1,1.14.39,6.68,6.68,0,0,1,1.7,1.12c.84.79,1.13,1.46,1.07,1.49s-.49-.5-1.36-1.15a7.29,7.29,0,0,0-1.63-.93,6.57,6.57,0,0,0-1.06-.32c-.38-.11-.71-.11-.81.06s-.05.09,0,.21a1.74,1.74,0,0,0,.4.31,8.91,8.91,0,0,0,1,.56,9.37,9.37,0,0,0,1.78.68A11.59,11.59,0,0,1,335.81,465.34Z" style="fill:#263238"></path><path d="M335.58,465.59a2.9,2.9,0,0,1-.48-1.77,6,6,0,0,1,.25-2,6.68,6.68,0,0,1,.47-1.12,1.53,1.53,0,0,1,1.17-.92.86.86,0,0,1,.77.51,2.42,2.42,0,0,1,.19.68,4.22,4.22,0,0,1,0,1.23,4.3,4.3,0,0,1-.79,1.9c-.72,1-1.47,1.16-1.48,1.1s.56-.44,1.11-1.35a4,4,0,0,0,.56-2.78c-.06-.39-.21-.71-.35-.67s-.49.29-.65.6a7.33,7.33,0,0,0-.45,1,6.71,6.71,0,0,0-.36,1.83C335.49,464.89,335.68,465.56,335.58,465.59Z" style="fill:#263238"></path><polygon points="323.06 297.66 340.41 472.12 317.99 473.17 291.34 330 291.67 472.3 267.86 471.99 258.69 295.81 323.06 297.66" style="fill:#263238"></polygon><path d="M273.41,310.11a5.07,5.07,0,0,1-1,1.82,11.69,11.69,0,0,1-3.71,3.3,12,12,0,0,1-4.75,1.49,5,5,0,0,1-2.05-.12c0-.09.78-.06,2-.25a13.28,13.28,0,0,0,8.21-4.65C273,310.75,273.33,310.07,273.41,310.11Z" style="fill:#455a64"></path><path d="M324.94,312.08a6.89,6.89,0,0,1-2.19.9,15,15,0,0,1-11.15-1.36,6.6,6.6,0,0,1-1.91-1.4c.05-.07.79.45,2.08,1.07a17,17,0,0,0,5.34,1.57,17.29,17.29,0,0,0,5.55-.24C324.07,312.32,324.91,312,324.94,312.08Z" style="fill:#455a64"></path><path d="M295.33,325.32s-.09.29-.55.49a2.18,2.18,0,0,1-2-.31,4.57,4.57,0,0,1-1.46-2.61c-.27-1.09-.56-2.25-.87-3.46-.61-2.46-1.12-4.69-1.47-6.32a13.26,13.26,0,0,1-.47-2.65,14,14,0,0,1,.82,2.57c.44,1.6,1,3.81,1.62,6.27.3,1.22.58,2.38.84,3.47a4.31,4.31,0,0,0,1.22,2.44,2,2,0,0,0,1.71.41A3.62,3.62,0,0,0,295.33,325.32Z" style="fill:#455a64"></path><path d="M292.88,310.44s.11-.1.35-.1a1.46,1.46,0,0,1,.91.37,1.69,1.69,0,0,1,.58,1.38,1.59,1.59,0,0,1-1.28,1.32,1.57,1.57,0,0,1-1.71-.65,1.64,1.64,0,0,1-.06-1.49,1.41,1.41,0,0,1,.66-.73c.22-.1.35-.08.36-.05s-.47.22-.68.91a1.32,1.32,0,0,0,.13,1.1,1.09,1.09,0,0,0,1.19.4,1.12,1.12,0,0,0,.91-.87,1.32,1.32,0,0,0-.36-1C293.4,310.45,292.88,310.53,292.88,310.44Z" style="fill:#455a64"></path><path d="M291,466.65a25.39,25.39,0,0,1-3.41.05c-2.09,0-5,0-8.19.06s-6.09.24-8.19.37a26.67,26.67,0,0,1-3.4.14,2.89,2.89,0,0,1,.9-.2c.58-.09,1.43-.2,2.47-.31,2.09-.22,5-.44,8.21-.52s6.11,0,8.22.09c1.05.05,1.89.11,2.48.18A2.76,2.76,0,0,1,291,466.65Z" style="fill:#455a64"></path><path d="M339.24,464.5c0,.15-4.9.86-11,1.6s-11,1.23-11.06,1.09,4.91-.86,11-1.6S339.23,464.36,339.24,464.5Z" style="fill:#455a64"></path><path d="M325.1,395.28a88.9,88.9,0,0,1-4.67,8.24,87.1,87.1,0,0,1-5.12,8,86.79,86.79,0,0,1,4.67-8.25A82.07,82.07,0,0,1,325.1,395.28Z" style="fill:#455a64"></path><path d="M283,398.23a132.62,132.62,0,0,1-6.94,15.22,69.14,69.14,0,0,1,3.23-7.72A68.12,68.12,0,0,1,283,398.23Z" style="fill:#455a64"></path><path d="M285.06,413.31a17.78,17.78,0,0,1-1.72-2.22c-1-1.39-2.46-3.31-4.1-5.37s-3.21-3.87-4.34-5.18a16.22,16.22,0,0,1-1.79-2.17,14.4,14.4,0,0,1,2.06,1.92c1.21,1.25,2.81,3,4.47,5.11s3.05,4,4,5.48A13,13,0,0,1,285.06,413.31Z" style="fill:#455a64"></path><path d="M262.41,206.53s-11.86,6.42-14.27,7.81c-2.61,1.52-10.34,16.78-9.47,24.55s1.48,6.41.86,7.76-2.72,10.73-.93,14.55,8.57,11.46,12.52,12.2,24.16-27.31,26.5-32.95a22.89,22.89,0,0,0,1.11-11.8l-10.32-4.59h0Z" style="fill:#0B87DA"></path><path d="M253.2,262.42v33.47c0,4.45,5.27,12.41,5.27,12.41h64.95s2.81-14.05,2.34-20.37-5.38-65.53-5.38-65.53L318.74,206l-17.32-4.21-.91-3.69L274.21,195l-1.4,6.09L261.6,207C261.6,207.91,253.2,262.42,253.2,262.42Z" style="fill:#0B87DA"></path><path d="M318.74,206a25.3,25.3,0,0,1,9.29,9.14c3.36,6,14.1,40.06,14.54,44.31s.67,10.07,0,10.51,2,16.11,2.91,20.37,2.88,15.33,2.21,20.7a69.8,69.8,0,0,0-.64,8.38L332.28,315l.51-5.17s-2.94-9-5-15.42-10.3-66.68-10.3-66.68Z" style="fill:#0B87DA"></path><path d="M324.51,302.16a4,4,0,0,1-.71.08l-2,.13c-1.76.11-4.32.23-7.47.34-6.32.23-15,.39-24.68.3s-18.37-.37-24.68-.66c-3.15-.15-5.71-.28-7.47-.39l-2-.15a3,3,0,0,1-.7-.08,3,3,0,0,1,.71,0l2,0L265,302c6.31.19,15,.43,24.66.51s18.36,0,24.67-.15l7.47-.17,2,0A3,3,0,0,1,324.51,302.16Z" style="fill:#263238"></path><path d="M279.05,228.83a2.11,2.11,0,0,1,.21.52,15.13,15.13,0,0,1,.45,1.53,19.75,19.75,0,0,1,.53,5.84,26.1,26.1,0,0,1-2,8.46,44.41,44.41,0,0,1-5.32,9.22,72.43,72.43,0,0,1-13.62,13.65c-1.94,1.53-3.55,2.72-4.68,3.52l-1.3.9a2.73,2.73,0,0,1-.48.29s.13-.14.42-.37l1.24-1c1.09-.85,2.66-2.07,4.57-3.63a77.67,77.67,0,0,0,13.43-13.68,45.48,45.48,0,0,0,5.3-9.1,26.4,26.4,0,0,0,2.08-8.3,21.21,21.21,0,0,0-.36-5.77C279.23,229.58,279,228.85,279.05,228.83Z" style="fill:#263238"></path><path d="M268.19,223.08a5.05,5.05,0,0,1-.91.85c-.59.53-1.44,1.31-2.43,2.32-2,2-4.46,5.11-7.5,8.25a33.87,33.87,0,0,1-9,6.67,29.31,29.31,0,0,1-3.11,1.37,4.83,4.83,0,0,1-1.19.36c0-.09,1.64-.69,4.13-2.05a37.1,37.1,0,0,0,8.76-6.71c3-3.12,5.52-6.19,7.61-8.15a32.27,32.27,0,0,1,2.57-2.22A6.4,6.4,0,0,1,268.19,223.08Z" style="fill:#263238"></path><path d="M290.29,196.9a1.23,1.23,0,0,1,0,.27c0,.21,0,.47.08.8.05.74.12,1.77.22,3.08.17,2.68.4,6.55.65,11.35.5,9.58,1.12,22.82,1.59,37.45s.7,27.9.64,37.5c0,2.4,0,4.57-.09,6.48s-.08,3.54-.16,4.88-.12,2.35-.16,3.09c0,.33,0,.59-.05.8a1.14,1.14,0,0,1,0,.27,1.39,1.39,0,0,1,0-.27v-.8q0-1.12.06-3.09c.05-1.34.06-3,.07-4.89s0-4.07,0-6.47c0-9.59-.31-22.84-.79-37.48s-1-27.87-1.44-37.46c-.2-4.76-.37-8.63-.48-11.35-.06-1.31-.1-2.34-.13-3.09,0-.32,0-.59,0-.8A1.1,1.1,0,0,1,290.29,196.9Z" style="fill:#263238"></path><path d="M276.69,272.21a14.08,14.08,0,0,1-2.22,2.18,43.66,43.66,0,0,1-6.1,4.38,44.21,44.21,0,0,1-6.75,3.29,13.63,13.63,0,0,1-3,.91,28.53,28.53,0,0,1,2.83-1.25,61.44,61.44,0,0,0,6.63-3.4,59.78,59.78,0,0,0,6.13-4.22A26.14,26.14,0,0,1,276.69,272.21Z" style="fill:#263238"></path><path d="M322.21,281.48a9.67,9.67,0,0,1-2-1.21,56,56,0,0,1-4.47-3.42,55,55,0,0,1-4.13-3.83,9.46,9.46,0,0,1-1.52-1.77,12.14,12.14,0,0,1,1.78,1.51c1.06,1,2.53,2.28,4.2,3.69s3.23,2.64,4.35,3.53A11.07,11.07,0,0,1,322.21,281.48Z" style="fill:#263238"></path><path d="M322.83,252.64a1.8,1.8,0,0,1,.13.49c.08.38.17.84.29,1.41.24,1.23.54,3,.85,5.23a149.6,149.6,0,0,1,1.42,17.42c.17,6.83-.1,13-.36,17.47-.14,2.24-.27,4-.38,5.29-.06.57-.1,1-.14,1.43a1.71,1.71,0,0,1-.09.5,2.09,2.09,0,0,1,0-.51c0-.39,0-.86.05-1.44.05-1.33.13-3.11.22-5.28.16-4.47.37-10.64.19-17.45s-.71-12.95-1.25-17.39c-.27-2.21-.51-4-.69-5.24-.08-.57-.14-1-.19-1.43A1.59,1.59,0,0,1,322.83,252.64Z" style="fill:#263238"></path><path d="M275.12,232.26a8.14,8.14,0,0,1,.78-2.26,8.58,8.58,0,0,1,.94-2.2,4.32,4.32,0,0,1-.46,2.38C275.9,231.45,275.24,232.33,275.12,232.26Z" style="fill:#263238"></path><path d="M269.67,229.57c-.12-.08.34-1,1-2s1.35-1.83,1.47-1.75-.35,1-1,2S269.79,229.65,269.67,229.57Z" style="fill:#263238"></path><path d="M265.94,226.92c-.09-.1.6-.88,1.62-1.64s2-1.2,2.05-1.07-.73.74-1.74,1.49S266,227,265.94,226.92Z" style="fill:#263238"></path><path d="M254.5,236.82c-.06.18-2.79-1.09-6.39-1.15s-6.37,1.16-6.42,1a6.12,6.12,0,0,1,1.78-.78,14.34,14.34,0,0,1,9.27.12A5.49,5.49,0,0,1,254.5,236.82Z" style="fill:#263238"></path><path d="M263.12,224.45c-.08,0-.48-.89-1.39-2.21a17.18,17.18,0,0,0-4.43-4.38,16.89,16.89,0,0,0-5.71-2.47C250,215,249,215,249,214.92s.25-.06.71-.07a10.53,10.53,0,0,1,1.93.18,15.13,15.13,0,0,1,5.93,2.4A15.34,15.34,0,0,1,262,222a11.29,11.29,0,0,1,.88,1.73C263.08,224.2,263.16,224.44,263.12,224.45Z" style="fill:#263238"></path><g style="opacity:0.30000000000000004"><path d="M252.56,272.4c6.31,1.43,13.06-1.37,17.61-6s7.21-10.76,8.95-17c.82-2.93,1.78-5.56.18-8.14a54.81,54.81,0,0,1-4.52,9.89,48.2,48.2,0,0,1-5.68,7.58c-4.8,5.57-10.21,9.56-16.54,13.62"></path></g><g style="opacity:0.30000000000000004"><path d="M264.94,295a17,17,0,0,0,8.18-.3,7.84,7.84,0,0,0,5.36-5.76,6.77,6.77,0,0,1-2.55,6.83,9.36,9.36,0,0,1-7.33,1.6,5.37,5.37,0,0,1-4-2.44"></path></g><g style="opacity:0.30000000000000004"><path d="M259.64,301.88c5.89,2.54,13,3.44,19.42,4a144.55,144.55,0,0,0,19.94.84,49,49,0,0,0,19.31-4.52s-23.83.67-31.13.39S259.64,301.88,259.64,301.88Z"></path></g><path d="M336.42,311.76a4.62,4.62,0,0,1,.16,2.15,4.72,4.72,0,0,1-.37,2.12c-.15,0-.21-1-.15-2.15A4.62,4.62,0,0,1,336.42,311.76Z" style="fill:#263238"></path><path d="M342.33,313a4.72,4.72,0,0,1,.33,2.41,4.88,4.88,0,0,1-.44,2.4,7.34,7.34,0,0,1-.08-2.41A7.64,7.64,0,0,1,342.33,313Z" style="fill:#263238"></path><path d="M290.21,196.71a6.09,6.09,0,0,0,1.94,1.83c.71.44,1.64.81,2.65,1.34a7.68,7.68,0,0,1,.77.45,2,2,0,0,1,.71.73,1.16,1.16,0,0,1-.08,1.13,3.63,3.63,0,0,1-.66.78,3.07,3.07,0,0,1-.85.61,1.38,1.38,0,0,1-1.11,0,3.46,3.46,0,0,1-1.24-1.42A18.53,18.53,0,0,1,291,199.5a9,9,0,0,1-.77-2.65c.08,0,.39,1,1.11,2.51a23.5,23.5,0,0,0,1.43,2.57c.31.45.61,1,1,1.21s1-.11,1.4-.54.86-.93.64-1.32a3.22,3.22,0,0,0-1.25-1c-1-.53-1.9-1-2.62-1.45A3.49,3.49,0,0,1,290.21,196.71Z" style="fill:#263238"></path><g style="opacity:0.30000000000000004"><path d="M254.52,236.53a10.1,10.1,0,0,1-4.58,2.42,21.49,21.49,0,0,0-4.91,1.78,1.62,1.62,0,0,0-.62.54.66.66,0,0,0,0,.77c.24.26.67.19,1,.09a18.3,18.3,0,0,0,9.07-5.6"></path></g><path d="M289.52,217l-18.63-8.83c-1.34-.85-1.38-3.24-.66-4.85a2.07,2.07,0,0,1,2.55-1.07l20.32,7.18Z" style="fill:#263238"></path><path d="M296.34,215.47c-1.41,4-1,7.71.82,8.37s4.51-2,5.92-6,1.05-7.71-.81-8.38S297.75,211.5,296.34,215.47Z" style="fill:#455a64"></path><path d="M289.52,217l6.9,6.45a11.89,11.89,0,0,1,5.05-14l-8.46,0Z" style="fill:#263238"></path><polygon points="300.4 210.09 295.98 221.81 453.61 401.99 540.49 274.1 300.4 210.09" style="fill:#0B87DA"></polygon><g style="opacity:0.8"><polygon points="300.4 210.09 295.98 221.81 453.61 401.99 540.49 274.1 300.4 210.09" style="fill:#fff"></polygon></g><path d="M456.2,298.27a3,3,0,1,1-3-3A3,3,0,0,1,456.2,298.27Z" style="fill:#0B87DA"></path><g style="opacity:0.6000000000000001"><path d="M456.2,298.27a3,3,0,1,1-3-3A3,3,0,0,1,456.2,298.27Z" style="fill:#fff"></path></g><path d="M394.16,260.48a1.49,1.49,0,1,1-1.48-1.49A1.49,1.49,0,0,1,394.16,260.48Z" style="fill:#0B87DA"></path><g style="opacity:0.6000000000000001"><path d="M394.16,260.48a1.49,1.49,0,1,1-1.48-1.49A1.49,1.49,0,0,1,394.16,260.48Z" style="fill:#fff"></path></g><path d="M411.09,296.78a1.49,1.49,0,1,1-1.49-1.49A1.49,1.49,0,0,1,411.09,296.78Z" style="fill:#0B87DA"></path><g style="opacity:0.6000000000000001"><path d="M411.09,296.78a1.49,1.49,0,1,1-1.49-1.49A1.49,1.49,0,0,1,411.09,296.78Z" style="fill:#fff"></path></g><circle cx="459.93" cy="277.2" r="1.49" style="fill:#0B87DA"></circle><g style="opacity:0.6000000000000001"><circle cx="459.93" cy="277.2" r="1.49" style="fill:#fff"></circle></g><path d="M334.93,227.93a1.49,1.49,0,1,1-1.49-1.49A1.49,1.49,0,0,1,334.93,227.93Z" style="fill:#0B87DA"></path><g style="opacity:0.6000000000000001"><path d="M334.93,227.93a1.49,1.49,0,1,1-1.49-1.49A1.49,1.49,0,0,1,334.93,227.93Z" style="fill:#fff"></path></g><ellipse cx="498.4" cy="338.94" rx="77.43" ry="23.74" transform="translate(-63.26 557.62) rotate(-55.49)" style="fill:#0B87DA"></ellipse><g style="opacity:0.7000000000000001"><ellipse cx="498.4" cy="338.94" rx="77.43" ry="23.74" transform="translate(-63.26 557.62) rotate(-55.49)" style="fill:#fff"></ellipse></g><path d="M296,221.81s5.37-2.49,4.42-11.72C300.4,210.09,294.86,213.45,296,221.81Z" style="fill:#fafafa"></path><polygon points="307.2 213.84 306.45 226.84 305.85 213.84 294.52 213.24 305.83 212.64 306.5 199.83 307.05 212.65 321.56 213.29 307.2 213.84" style="fill:#fff"></polygon><polygon points="305.45 213.03 302.52 208.31 306.17 212.52 305.45 213.03" style="fill:#fff"></polygon><polygon points="306.5 212.7 310.43 208.83 307.12 213.34 306.5 212.7" style="fill:#fff"></polygon><polygon points="307.2 213.64 310.13 218.36 306.48 214.15 307.2 213.64" style="fill:#fff"></polygon><polygon points="306.15 213.97 302.21 217.84 305.53 213.34 306.15 213.97" style="fill:#fff"></polygon><path d="M290.18,205.76c-1-.76-3.51-.8-3.51-.8s.84-.57-1-2c-.63-.5-4.41.06-4.41.06a1.85,1.85,0,0,0-1.37-1.77,4.39,4.39,0,0,0-2.34,0c-1.27.37-2.59.78-2.65,2.09l-.48,2.65h-.05a11.84,11.84,0,0,0-2.27-.08,22.6,22.6,0,0,0-.6,3.06,13.89,13.89,0,0,0,1.5,4.82l-.22,3.51-4.7,6,10.82,5.27s2-3.42,3.23-5.08,4-2.92,4.51-4.24a53.18,53.18,0,0,0,2.32-8.07,3.15,3.15,0,0,1,2-2.5S291.16,206.52,290.18,205.76Z" style="fill:#ffbe9d"></path><path d="M274.68,204.66a10.39,10.39,0,0,1-.19,3.88c-.36,2.11-.53,3.81-.63,3.82a9.71,9.71,0,0,1,.17-3.89A35.58,35.58,0,0,1,274.68,204.66Z" style="fill:#eb996e"></path><path d="M278,207.83a7,7,0,0,1,.09-1,8.5,8.5,0,0,1,.27-2.45,2.07,2.07,0,0,1,.92-1.14,3,3,0,0,1,1.11-.31c.62-.05,1-.1,1,0s-.35.23-.95.37a3.33,3.33,0,0,0-.95.35,1.78,1.78,0,0,0-.7.93,14.73,14.73,0,0,0-.38,2.33C278.27,207.52,278,207.86,278,207.83Z" style="fill:#eb996e"></path><path d="M287.08,204.65a2.54,2.54,0,0,1-1.05.15c-.32,0-.7,0-1.12,0a3.19,3.19,0,0,0-1.28.21,2,2,0,0,0-1,.72,2.79,2.79,0,0,0-.36,1c-.1.63-.24,1-.31,1a3.49,3.49,0,0,1,0-1.06,2.37,2.37,0,0,1,.32-1.16,2.3,2.3,0,0,1,1.18-.93,3.43,3.43,0,0,1,1.44-.2l1.15.06C286.7,204.52,287.09,204.59,287.08,204.65Z" style="fill:#eb996e"></path><path d="M290.29,206.08c0,.07-.45.08-1.15.13a3.46,3.46,0,0,0-2.37.91,4.1,4.1,0,0,0-.92,2.41c-.08.69-.11,1.14-.18,1.14a2.59,2.59,0,0,1-.15-1.16,3.89,3.89,0,0,1,.91-2.71,2.9,2.9,0,0,1,1.42-.81,4.32,4.32,0,0,1,1.29-.11A2.41,2.41,0,0,1,290.29,206.08Z" style="fill:#eb996e"></path><path d="M333,315.17l-2.84,6.63v8.67s1.58,4.89,2.59,4.79,2.94-.83,2.67-2l2.21,1.2,2.4-.18s6.28-6.09,6.6-7.38a21.75,21.75,0,0,0,.41-3.37l-1.88-4.64Z" style="fill:#ffbe9d"></path><path d="M334.9,325.57c.07,0,0,.48-.16,1.21a7.85,7.85,0,0,0-.33,2.78,10.52,10.52,0,0,0,1.27,3.75c0,.05-.43-.24-.85-.89a6,6,0,0,1-.94-2.82,6.41,6.41,0,0,1,.5-2.93C334.66,326,334.83,325.55,334.9,325.57Z" style="fill:#eb996e"></path><path d="M337.67,330.9c-.07,0-.24-.38-.47-1-.12-.33-.25-.73-.38-1.17a6.41,6.41,0,0,0-.49-1.35.73.73,0,0,0-.95-.41,1.3,1.3,0,0,0-.69.75c-.22.61-.26,1.07-.35,1.06s-.16-.44,0-1.18a1.61,1.61,0,0,1,.85-1.07,1.16,1.16,0,0,1,.9-.05,1.42,1.42,0,0,1,.69.63,5.74,5.74,0,0,1,.5,1.48c.11.46.2.87.27,1.21C337.69,330.45,337.74,330.88,337.67,330.9Z" style="fill:#eb996e"></path><path d="M343,326.44a4.14,4.14,0,0,1,.37,2.53,4.2,4.2,0,0,1-.71,2.46,12.6,12.6,0,0,1,.19-2.49A14.65,14.65,0,0,1,343,326.44Z" style="fill:#eb996e"></path><path d="M337.24,324.84a5.53,5.53,0,0,1,.38,2.56,5.7,5.7,0,0,1-.29,2.57,7.26,7.26,0,0,1-.23-2.56A7.89,7.89,0,0,1,337.24,324.84Z" style="fill:#eb996e"></path><path d="M345.6,328.42c-.12-.05,0-.75,0-1.65s0-1.62.16-1.66.4.73.36,1.68S345.75,328.49,345.6,328.42Z" style="fill:#eb996e"></path><path d="M297.37,182.36a1.21,1.21,0,0,0-1.41.6,2,2,0,0,0,0,1.62.75.75,0,0,0,.44.52.66.66,0,0,0,.5,0,1.86,1.86,0,0,0,.41-.33,3.34,3.34,0,0,0,.53-1.22c.12-.44,0-1.08-.44-1.17" style="fill:#eb996e"></path><path d="M296.78,185.28c0,.06,0,.17-.17.25a.79.79,0,0,1-.72-.1,1.4,1.4,0,0,1-.56-.87,3.2,3.2,0,0,1-.06-1.09,1.64,1.64,0,0,1,1.47-1.5c.63,0,.83.43.73.51s-.35.07-.61.22a1.16,1.16,0,0,0-.56.93,5,5,0,0,0,0,.77,1.45,1.45,0,0,0,.09.48C296.48,185.11,296.7,185.17,296.78,185.28Z" style="fill:#263238"></path></g><g id="freepik--speech-bubble--inject-2"><path d="M324.34,193.64l5.4-9.52a25.55,25.55,0,1,1,6.11,6.79h0Z" style="fill:#fff"></path><path d="M324.34,193.64l11.49-2.84-.07.2h0a.12.12,0,0,1,0-.18.14.14,0,0,1,.16,0,25.33,25.33,0,0,0,12.13,5,23.79,23.79,0,0,0,4,.18c.69,0,1.38-.06,2.09-.12l2.12-.33a25.69,25.69,0,0,0,8.46-3.36,25.33,25.33,0,0,0,11.43-16.46,25.65,25.65,0,0,0-.3-11.15,24.8,24.8,0,0,0-5.38-10.3,25.07,25.07,0,0,0-9.65-6.9,25.65,25.65,0,0,0-11.24-1.74,24.74,24.74,0,0,0-10.32,3,25.51,25.51,0,0,0-7.66,6.51,25.9,25.9,0,0,0-4.31,8.13,27.5,27.5,0,0,0-1.13,8.18,25.29,25.29,0,0,0,3.69,12.54.15.15,0,0,1,0,.13c-3.44,5.91-5.08,8.71-5.51,9.46.42-.76,2-3.6,5.29-9.58v.12a25.42,25.42,0,0,1-3.83-12.66,27.66,27.66,0,0,1,1.1-8.31A25.92,25.92,0,0,1,339,148.27a25.14,25.14,0,0,1,10.52-3.11A26,26,0,0,1,361,146.92a25.63,25.63,0,0,1,9.85,7,25.25,25.25,0,0,1,5.49,10.52,25.7,25.7,0,0,1-20,31.5l-2.16.33c-.72,0-1.42.07-2.12.11a22.32,22.32,0,0,1-4-.21A25.46,25.46,0,0,1,335.77,191l.18-.19v0a.12.12,0,0,1,0,.18l-.05,0Z" style="fill:#263238"></path><path d="M348.3,160l1.31,12.67a2.05,2.05,0,0,0,2,1.85h0a2.06,2.06,0,0,0,2.1-1.91l.9-12.83a1.61,1.61,0,0,0-1.7-1.73l-3.1.16A1.62,1.62,0,0,0,348.3,160Z" style="fill:#0B87DA"></path><path d="M354.8,181.62a3.1,3.1,0,1,1-2-3.91A3.11,3.11,0,0,1,354.8,181.62Z" style="fill:#0B87DA"></path></g><g id="freepik--Trees--inject-2"><path d="M153.6,9.15l-9.15,85.72s-1.09,11.08-6.63,7.87c-6.32-3.65-11.67-20.37-11.67-20.37l-1.27-3-6,2.54,14.75,31.55,7.75,25,3.94,61.5-12,283.9,34.57-.09S165.75,214.49,166.64,202s51.62-49.15,51.62-49.15l-.13-7.5-52.55,35.09L180.9,9.13Z" style="fill:#263238"></path><polyline points="126.06 82.12 113.03 51.8 132.68 6.55 129.33 6.55 108.33 48.81 101.11 13.39 97.51 13.32 102.95 51.8 113.03 71.48 87.82 67.54 86.1 71.48 115.33 76.48 119.83 83.6" style="fill:#263238"></polyline><path d="M621.79,6.78s-17,98.76-22.39,112.63-10.67,29.87-10.67,29.87L550.58,80.61,544.27,84l39.13,77s-21.34,25.6-22.41,48,0,59.75,0,59.75L542,481.83h30.72v-212s-6.4-54.42-3.2-64,21.34-40.54,21.34-40.54,19.45-24.54,22-49.08S630.81,7.52,630.81,7.52Z" style="fill:#263238"></path></g><g id="freepik--Plants--inject-2"><path d="M667.3,441.27a47.52,47.52,0,0,0-44.18-10.35c-4.85-20.26-27.52-34.38-47.84-29.81s-34.76,27-30.47,47.42a43.25,43.25,0,0,0-41.39,3.55c-12,8.13-19.29,17.47-18.59,31.92l196.91.28A47.54,47.54,0,0,0,667.3,441.27Z" style="fill:#455a64"></path><path d="M549.55,473.5a17.84,17.84,0,0,1,1.08-3.6,24.62,24.62,0,0,1,5.75-8.45,24.29,24.29,0,0,1,13.52-6.66,25.27,25.27,0,0,1,17.77,4.57,23.4,23.4,0,0,1,5.22,5.09l-.46.12a33.13,33.13,0,0,1,6.11-14.77,35.6,35.6,0,0,1,4.6-5.18,36.12,36.12,0,0,1,4.75-3.64,31.4,31.4,0,0,1,7.74-3.64c1-.33,1.73-.45,2.23-.59a4,4,0,0,1,.79-.15,6.09,6.09,0,0,1-.76.24c-.5.17-1.26.32-2.2.67a33.41,33.41,0,0,0-7.62,3.75,36,36,0,0,0-4.65,3.66,36.43,36.43,0,0,0-4.51,5.14,33,33,0,0,0-6,14.58l-.1.62-.37-.5a23.22,23.22,0,0,0-5.1-5A24.92,24.92,0,0,0,570,455.26a24.19,24.19,0,0,0-13.33,6.45,25.52,25.52,0,0,0-5.82,8.27,24.76,24.76,0,0,0-.95,2.6l-.22.69A.73.73,0,0,1,549.55,473.5Z" style="fill:#263238"></path><g style="opacity:0.30000000000000004"><path d="M588.72,449.46c-5.19-4.65-13.23-5.33-19.61-2.52s-11.09,8.64-13.57,15.15c4.63-5.51,12.16-7.71,19.33-7.18s13.81,3.79,17.57,9.91a37.11,37.11,0,0,1,21.74-26.89l2.41-.81C606,434.93,593.76,439.84,588.72,449.46Z"></path></g><path d="M662.81,417.36a11.3,11.3,0,0,0-6.66,4.81c1.81,2.36,5.19,2.79,8,1.84a14.49,14.49,0,0,0,6.8-5.57A11.28,11.28,0,0,0,662.81,417.36Z" style="fill:#455a64"></path><path d="M660.63,400.47A16.68,16.68,0,0,0,650,420.74c4.46.33,8.31-3,10.08-7.1S661.58,404.83,660.63,400.47Z" style="fill:#455a64"></path><path d="M79.61,429.23a10.63,10.63,0,0,1,7,4.49,19,19,0,0,1,3,7.92c.91,5.44-.56,11.62-2.58,16.76-5.55-2.6-8.51-9.07-9.81-12.44-2-5.34-2.5-16.22,2.34-16.73" style="fill:#0B87DA"></path><path d="M95.26,466.06A9.08,9.08,0,0,1,95,457a12.07,12.07,0,0,1,7.39-5.66,5.09,5.09,0,0,1,4.26.3,3.88,3.88,0,0,1,1.41,3.67,7.83,7.83,0,0,1-1.74,3.69c-2.9,3.74-6.38,6.82-11.1,7.1" style="fill:#0B87DA"></path><path d="M93.86,483.31a3.89,3.89,0,0,1-.19-1.15c-.08-.74-.17-1.81-.24-3.14a38.55,38.55,0,0,1,.63-10.41,19.45,19.45,0,0,1,4.73-9.26,12.59,12.59,0,0,1,2.46-2,3.56,3.56,0,0,1,1-.52,26.3,26.3,0,0,0-3.18,2.84,20.54,20.54,0,0,0-4.45,9.1,45.6,45.6,0,0,0-.8,10.25A34.86,34.86,0,0,1,93.86,483.31Z" style="fill:#263238"></path><path d="M80.9,437.49a11.22,11.22,0,0,1,.7,1.78c.42,1.16,1,2.85,1.67,4.94,1.37,4.18,3.16,10,5,16.44s3.32,12.36,4.34,16.63c.51,2.14.9,3.88,1.15,5.08a10.59,10.59,0,0,1,.33,1.89,11.27,11.27,0,0,1-.56-1.83c-.35-1.29-.8-3-1.35-5-1.12-4.25-2.69-10.11-4.51-16.57s-3.54-12.27-4.8-16.48l-1.48-5A11.64,11.64,0,0,1,80.9,437.49Z" style="fill:#263238"></path><path d="M87.87,471.24a21.24,21.24,0,0,0-15.16-12.08c-1.68-.32-3.76-.27-4.69,1.16s-.14,3.36.87,4.75a18.14,18.14,0,0,0,19,6.63" style="fill:#0B87DA"></path><path d="M74.55,464a4,4,0,0,1,1.11.11,9.47,9.47,0,0,1,1.27.27,15.61,15.61,0,0,1,1.66.5,22.28,22.28,0,0,1,4.08,1.9,26,26,0,0,1,4.38,3.36,25.26,25.26,0,0,1,3.5,4.27,22,22,0,0,1,2,4,13.73,13.73,0,0,1,.55,1.64,8.45,8.45,0,0,1,.31,1.26,3.8,3.8,0,0,1,.15,1.1c-.12,0-.42-1.52-1.41-3.84a25,25,0,0,0-2.11-3.87,27.13,27.13,0,0,0-3.45-4.14,27.55,27.55,0,0,0-4.25-3.31,24.94,24.94,0,0,0-3.93-2C76.09,464.37,74.53,464.12,74.55,464Z" style="fill:#263238"></path></g><g id="freepik--Floor--inject-2"><path d="M719.49,484.28c0,.14-153.92.26-343.75.26S32,484.42,32,484.28,185.85,484,375.74,484,719.49,484.14,719.49,484.28Z" style="fill:#263238"></path></g></svg>