<svg width="671" height="150" viewBox="0 0 671 150" fill="none" xmlns="http://www.w3.org/2000/svg">
<path d="M40.75 51.375H59.3125V118.375C59.3125 124.625 58.0417 129.75 55.5 133.75C53 137.792 49.5 140.771 45 142.688C40.5 144.646 35.2292 145.625 29.1875 145.625C26.7708 145.625 24.25 145.292 21.625 144.625C19.0417 143.958 16.5833 143.104 14.25 142.062C11.9583 141.021 10.0625 139.896 8.5625 138.688L15.875 125.5C17.125 126.417 18.8125 127.396 20.9375 128.438C23.1042 129.521 25.625 130.062 28.5 130.062C30.75 130.062 32.625 129.688 34.125 128.938C35.6667 128.188 36.8125 126.938 37.5625 125.188C38.3542 123.479 38.75 121.167 38.75 118.25V67.375L40.75 51.375ZM3.5 88.5V82.1875C3.5 76.6458 4.04167 71.875 5.125 67.875C6.20833 63.8333 7.77083 60.5 9.8125 57.875C11.8958 55.25 14.3958 53.3125 17.3125 52.0625C20.2292 50.7708 23.5 50.125 27.125 50.125C31 50.125 34.1042 50.9792 36.4375 52.6875C38.7708 54.3958 40.5625 56.7708 41.8125 59.8125C43.1042 62.8542 44.1042 66.4167 44.8125 70.5C45.5208 74.5833 46.1667 78.9583 46.75 83.625V87.875C46.125 92.25 45.3542 96.3958 44.4375 100.312C43.5625 104.188 42.3958 107.625 40.9375 110.625C39.4792 113.625 37.6042 115.979 35.3125 117.688C33.0625 119.396 30.2917 120.25 27 120.25C23.375 120.25 20.125 119.604 17.25 118.312C14.375 116.979 11.9167 115 9.875 112.375C7.83333 109.708 6.25 106.396 5.125 102.438C4.04167 98.4792 3.5 93.8333 3.5 88.5ZM24.0625 82.1875V88.5C24.0625 91.4167 24.2292 93.875 24.5625 95.875C24.8958 97.8333 25.4167 99.4167 26.125 100.625C26.8333 101.833 27.7083 102.708 28.75 103.25C29.7917 103.75 31.0208 104 32.4375 104C34.7292 104 36.5417 103.417 37.875 102.25C39.2083 101.083 40.1458 99.4167 40.6875 97.25C41.2292 95.0417 41.375 92.4583 41.125 89.5V81.875C41.25 79.2917 41.1667 77.0417 40.875 75.125C40.5833 73.1667 40.0833 71.5417 39.375 70.25C38.6667 68.9583 37.75 68 36.625 67.375C35.5 66.7083 34.1458 66.375 32.5625 66.375C31.2292 66.375 30.0208 66.6458 28.9375 67.1875C27.8958 67.6875 27 68.5417 26.25 69.75C25.5417 70.9583 25 72.5833 24.625 74.625C24.25 76.6667 24.0625 79.1875 24.0625 82.1875ZM102.75 102.562V51.375H123.312V119H104.125L102.75 102.562ZM104.625 88.8125L109.688 88.6875C109.688 93.2292 109.229 97.4375 108.312 101.312C107.396 105.146 106.062 108.479 104.312 111.312C102.562 114.146 100.417 116.354 97.875 117.938C95.375 119.479 92.4792 120.25 89.1875 120.25C86.3542 120.25 83.7708 119.792 81.4375 118.875C79.1458 117.917 77.1458 116.438 75.4375 114.438C73.7708 112.396 72.4583 109.792 71.5 106.625C70.5833 103.417 70.125 99.5833 70.125 95.125V51.375H90.625V95.25C90.625 96.75 90.7292 98.0417 90.9375 99.125C91.1875 100.208 91.5208 101.125 91.9375 101.875C92.3958 102.583 92.9792 103.125 93.6875 103.5C94.3958 103.833 95.2292 104 96.1875 104C98.3542 104 100.062 103.333 101.312 102C102.562 100.667 103.417 98.8542 103.875 96.5625C104.375 94.2708 104.625 91.6875 104.625 88.8125ZM155.375 104.562L164.688 51.375H186.312L168.438 119H155.75L155.375 104.562ZM151.25 51.375L160.438 104.562L160.188 119H147.5L129.625 51.375H151.25ZM220.938 120.25C216.104 120.25 211.792 119.583 208 118.25C204.25 116.917 201.104 114.958 198.562 112.375C196.021 109.75 194.083 106.562 192.75 102.812C191.458 99.0625 190.812 94.7708 190.812 89.9375V82.5625C190.812 77.1458 191.375 72.4167 192.5 68.375C193.667 64.3333 195.396 60.9792 197.688 58.3125C199.979 55.6042 202.896 53.5625 206.438 52.1875C209.979 50.8125 214.146 50.125 218.938 50.125C223.146 50.125 226.875 50.75 230.125 52C233.417 53.25 236.188 55.1875 238.438 57.8125C240.729 60.3958 242.479 63.7083 243.688 67.75C244.896 71.75 245.5 76.5 245.5 82V91.8125H198.5V78.625H225.438V76.3125C225.479 73.5625 225.229 71.4792 224.688 70.0625C224.188 68.6458 223.438 67.6875 222.438 67.1875C221.438 66.6458 220.208 66.375 218.75 66.375C217.042 66.375 215.688 66.6667 214.688 67.25C213.688 67.8333 212.958 68.75 212.5 70C212.042 71.25 211.729 72.9167 211.562 75C211.438 77.0833 211.375 79.6042 211.375 82.5625V89.9375C211.375 92.8542 211.604 95.2292 212.062 97.0625C212.562 98.8958 213.271 100.312 214.188 101.312C215.146 102.312 216.292 103.021 217.625 103.438C219 103.812 220.562 104 222.312 104C224.812 104 227.25 103.583 229.625 102.75C232 101.875 234.021 100.458 235.688 98.5L244.062 111.25C242.938 112.708 241.271 114.146 239.062 115.562C236.854 116.938 234.229 118.062 231.188 118.938C228.146 119.812 224.729 120.25 220.938 120.25ZM274.125 65.8125V119H253.562V51.375H272.812L274.125 65.8125ZM271.688 82.875L267.062 83C266.979 77.8333 267.438 73.2292 268.438 69.1875C269.479 65.1042 270.958 61.6458 272.875 58.8125C274.833 55.9792 277.167 53.8333 279.875 52.375C282.583 50.875 285.604 50.125 288.938 50.125C291.479 50.125 293.833 50.5833 296 51.5C298.208 52.4167 300.104 53.8958 301.688 55.9375C303.271 57.9792 304.5 60.6875 305.375 64.0625C306.25 67.3958 306.688 71.5208 306.688 76.4375V119H286.062V76.375C286.062 73.6667 285.812 71.6042 285.312 70.1875C284.854 68.7292 284.125 67.7292 283.125 67.1875C282.167 66.6458 280.938 66.375 279.438 66.375C277.979 66.375 276.729 66.7917 275.688 67.625C274.688 68.4583 273.875 69.625 273.25 71.125C272.667 72.5833 272.25 74.3125 272 76.3125C271.792 78.3125 271.688 80.5 271.688 82.875ZM349.25 103.5V23H369.812V119H351.375L349.25 103.5ZM315.438 88.5V82.1875C315.438 76.6458 315.896 71.875 316.812 67.875C317.771 63.8333 319.167 60.5 321 57.875C322.875 55.25 325.208 53.3125 328 52.0625C330.833 50.7708 334.062 50.125 337.688 50.125C340.771 50.125 343.417 50.9792 345.625 52.6875C347.833 54.3958 349.688 56.7708 351.188 59.8125C352.729 62.8542 353.979 66.4167 354.938 70.5C355.938 74.5833 356.688 78.9583 357.188 83.625V87.875C356.604 92.25 355.833 96.3958 354.875 100.312C353.917 104.188 352.667 107.625 351.125 110.625C349.625 113.625 347.75 115.979 345.5 117.688C343.292 119.396 340.646 120.25 337.562 120.25C333.896 120.25 330.688 119.604 327.938 118.312C325.188 116.979 322.875 115 321 112.375C319.167 109.708 317.771 106.396 316.812 102.438C315.896 98.4792 315.438 93.8333 315.438 88.5ZM335.938 82.1875V88.5C335.938 91.4167 336.021 93.875 336.188 95.875C336.396 97.8333 336.75 99.4167 337.25 100.625C337.792 101.833 338.521 102.708 339.438 103.25C340.354 103.75 341.521 104 342.938 104C344.896 104 346.5 103.417 347.75 102.25C349 101.083 349.896 99.4167 350.438 97.25C350.979 95.0417 351.125 92.4583 350.875 89.5V81.875C351.042 79.2917 350.958 77.0417 350.625 75.125C350.333 73.1667 349.833 71.5417 349.125 70.25C348.458 68.9583 347.604 68 346.562 67.375C345.562 66.7083 344.396 66.375 343.062 66.375C341.729 66.375 340.583 66.6458 339.625 67.1875C338.708 67.6875 337.979 68.5417 337.438 69.75C336.938 70.9583 336.562 72.5833 336.312 74.625C336.062 76.6667 335.938 79.1875 335.938 82.1875ZM409.812 120.25C404.979 120.25 400.667 119.583 396.875 118.25C393.125 116.917 389.979 114.958 387.438 112.375C384.896 109.75 382.958 106.562 381.625 102.812C380.333 99.0625 379.688 94.7708 379.688 89.9375V82.5625C379.688 77.1458 380.25 72.4167 381.375 68.375C382.542 64.3333 384.271 60.9792 386.562 58.3125C388.854 55.6042 391.771 53.5625 395.312 52.1875C398.854 50.8125 403.021 50.125 407.812 50.125C412.021 50.125 415.75 50.75 419 52C422.292 53.25 425.062 55.1875 427.312 57.8125C429.604 60.3958 431.354 63.7083 432.562 67.75C433.771 71.75 434.375 76.5 434.375 82V91.8125H387.375V78.625H414.312V76.3125C414.354 73.5625 414.104 71.4792 413.562 70.0625C413.062 68.6458 412.312 67.6875 411.312 67.1875C410.312 66.6458 409.083 66.375 407.625 66.375C405.917 66.375 404.562 66.6667 403.562 67.25C402.562 67.8333 401.833 68.75 401.375 70C400.917 71.25 400.604 72.9167 400.438 75C400.312 77.0833 400.25 79.6042 400.25 82.5625V89.9375C400.25 92.8542 400.479 95.2292 400.938 97.0625C401.438 98.8958 402.146 100.312 403.062 101.312C404.021 102.312 405.167 103.021 406.5 103.438C407.875 103.812 409.438 104 411.188 104C413.688 104 416.125 103.583 418.5 102.75C420.875 101.875 422.896 100.458 424.562 98.5L432.938 111.25C431.812 112.708 430.146 114.146 427.938 115.562C425.729 116.938 423.104 118.062 420.062 118.938C417.021 119.812 413.604 120.25 409.812 120.25ZM463.562 22.9375V119H443.062V22.9375H463.562ZM499.812 51.375L475.875 85.8125L462.125 101.188L453.125 87.8125L464.375 71.125L475.375 51.375H499.812ZM477.688 119L464.75 88.1875L480 77.125L501.062 119H477.688ZM534.062 102V72.25C534.062 70.3333 533.917 68.875 533.625 67.875C533.333 66.8333 532.854 66.1042 532.188 65.6875C531.562 65.2292 530.625 65 529.375 65C528.375 65 527.562 65.25 526.938 65.75C526.312 66.25 525.875 67.0208 525.625 68.0625C525.375 69.1042 525.25 70.4792 525.25 72.1875H504.688C504.688 69.0625 505.292 66.1667 506.5 63.5C507.708 60.7917 509.438 58.4375 511.688 56.4375C513.938 54.4375 516.625 52.8958 519.75 51.8125C522.917 50.6875 526.458 50.125 530.375 50.125C535 50.125 539.146 50.875 542.812 52.375C546.479 53.8333 549.375 56.1875 551.5 59.4375C553.667 62.6875 554.75 67 554.75 72.375V101.938C554.75 106.354 554.979 109.708 555.438 112C555.896 114.25 556.521 116.229 557.312 117.938V119H536.812C535.854 116.917 535.146 114.375 534.688 111.375C534.271 108.333 534.062 105.208 534.062 102ZM536.375 77.6875L536.5 88.9375H531.188C529.896 88.9375 528.792 89.25 527.875 89.875C526.958 90.4583 526.188 91.25 525.562 92.25C524.979 93.25 524.562 94.375 524.312 95.625C524.062 96.8333 523.938 98.0833 523.938 99.375C523.938 101.208 524.125 102.542 524.5 103.375C524.917 104.208 525.417 104.75 526 105C526.625 105.208 527.312 105.312 528.062 105.312C529.646 105.312 530.958 104.979 532 104.312C533.083 103.604 533.854 102.771 534.312 101.812C534.771 100.854 534.896 100.042 534.688 99.375L536.812 107.625C536.104 109.167 535.417 110.688 534.75 112.188C534.083 113.646 533.25 115 532.25 116.25C531.25 117.458 530.021 118.417 528.562 119.125C527.104 119.875 525.271 120.25 523.062 120.25C519.562 120.25 516.312 119.542 513.312 118.125C510.354 116.708 507.958 114.521 506.125 111.562C504.333 108.604 503.438 104.854 503.438 100.312C503.438 97.1875 503.917 94.2708 504.875 91.5625C505.875 88.8125 507.438 86.3958 509.562 84.3125C511.688 82.2292 514.542 80.6042 518.125 79.4375C521.75 78.2708 526.167 77.6875 531.375 77.6875H536.375ZM587 23V119H566.5V23H587ZM622.125 28L619.438 90.1875H602.812L600.125 28H622.125ZM599.75 109.562C599.75 106.562 600.792 104.062 602.875 102.062C604.958 100.021 607.625 99 610.875 99C614.208 99 616.875 100.021 618.875 102.062C620.917 104.062 621.938 106.562 621.938 109.562C621.938 112.562 620.917 115.083 618.875 117.125C616.875 119.125 614.208 120.125 610.875 120.125C607.625 120.125 604.958 119.125 602.875 117.125C600.792 115.083 599.75 112.562 599.75 109.562Z" fill="black"/>
<path d="M646.138 119.852H643.887C641.713 119.852 639.789 119.585 638.116 119.05C636.442 118.515 635.045 117.756 633.923 116.772C632.785 115.772 631.931 114.599 631.361 113.253C630.775 111.907 630.481 110.424 630.481 108.802C630.481 107.146 630.775 105.645 631.361 104.299C631.931 102.936 632.785 101.763 633.923 100.779C635.045 99.7786 636.442 99.0109 638.116 98.4761C639.789 97.9412 641.713 97.6738 643.887 97.6738H646.138C648.312 97.6738 650.236 97.9412 651.909 98.4761C653.583 99.0109 654.989 99.7786 656.127 100.779C657.249 101.763 658.094 102.927 658.664 104.273C659.233 105.619 659.518 107.111 659.518 108.75C659.518 110.372 659.233 111.864 658.664 113.227C658.094 114.573 657.249 115.746 656.127 116.747C654.989 117.747 653.583 118.515 651.909 119.05C650.236 119.585 648.312 119.852 646.138 119.852ZM643.887 113.822H646.138C647.536 113.822 648.761 113.701 649.813 113.46C650.848 113.218 651.711 112.873 652.401 112.425C653.091 111.976 653.609 111.441 653.954 110.82C654.299 110.199 654.471 109.509 654.471 108.75C654.471 107.905 654.299 107.171 653.954 106.55C653.609 105.912 653.091 105.386 652.401 104.972C651.711 104.54 650.848 104.221 649.813 104.014C648.761 103.807 647.536 103.704 646.138 103.704H643.887C642.507 103.704 641.299 103.824 640.264 104.066C639.211 104.307 638.34 104.653 637.65 105.101C636.943 105.55 636.416 106.093 636.071 106.731C635.726 107.353 635.554 108.043 635.554 108.802C635.554 109.544 635.726 110.225 636.071 110.846C636.416 111.45 636.943 111.976 637.65 112.425C638.34 112.873 639.211 113.218 640.264 113.46C641.299 113.701 642.507 113.822 643.887 113.822ZM636.408 72.6624H659V78.6922H630.999V72.9471L636.408 72.6624ZM630.818 65.908L636.77 65.9339C636.684 66.2789 636.632 66.6499 636.615 67.0467C636.58 67.4262 636.563 67.8058 636.563 68.1853C636.563 69.0135 636.71 69.7294 637.003 70.3333C637.296 70.9371 637.719 71.4461 638.271 71.8601C638.823 72.2742 639.487 72.602 640.264 72.8435C641.04 73.0678 641.92 73.2058 642.903 73.2576L642.955 74.5515C641.195 74.5515 639.565 74.4135 638.064 74.1375C636.546 73.8614 635.226 73.4474 634.104 72.8953C632.966 72.326 632.077 71.6186 631.439 70.7732C630.801 69.9278 630.481 68.9444 630.481 67.823C630.481 67.5125 630.516 67.1588 630.585 66.762C630.654 66.3652 630.732 66.0805 630.818 65.908ZM630.999 33.5728V28.1124H659.104C661.622 28.1124 663.684 28.5782 665.289 29.5098C666.91 30.4242 668.109 31.7009 668.886 33.3399C669.662 34.9789 670.05 36.8767 670.05 39.0333C670.05 39.8269 669.921 40.7672 669.662 41.8541C669.403 42.941 669.024 44.002 668.523 45.0372C668.023 46.0723 667.402 46.935 666.66 47.6251L662.468 45.4254C663.296 44.6145 663.934 43.657 664.383 42.5528C664.849 41.4486 665.082 40.3876 665.082 39.3697C665.082 38.2655 664.892 37.3339 664.512 36.5748C664.15 35.7984 663.537 35.2032 662.675 34.7891C661.829 34.3751 660.682 34.168 659.233 34.168H637.339L630.999 33.5728ZM646.138 49.4107H643.938C641.644 49.4107 639.66 49.195 637.986 48.7637C636.296 48.3324 634.889 47.7113 633.768 46.9005C632.647 46.0896 631.819 45.0976 631.284 43.9244C630.749 42.7512 630.481 41.44 630.481 39.9908C630.481 38.4898 630.801 37.2217 631.439 36.1866C632.06 35.1342 632.949 34.2802 634.104 33.6246C635.26 32.9517 636.641 32.4255 638.245 32.046C639.832 31.6664 641.609 31.3904 643.576 31.2178H646.63C648.528 31.3904 650.27 31.6837 651.857 32.0977C653.427 32.5118 654.782 33.0725 655.92 33.7798C657.059 34.47 657.948 35.3326 658.586 36.3677C659.207 37.3856 659.518 38.6106 659.518 40.0425C659.518 41.4745 659.233 42.7685 658.664 43.9244C658.094 45.0803 657.249 46.0723 656.127 46.9005C655.006 47.7113 653.617 48.3324 651.961 48.7637C650.287 49.195 648.347 49.4107 646.138 49.4107ZM643.938 43.3809H646.138C647.57 43.3809 648.804 43.286 649.839 43.0963C650.874 42.8892 651.728 42.5873 652.401 42.1905C653.056 41.7937 653.548 41.2761 653.876 40.6378C654.187 39.9994 654.342 39.2403 654.342 38.3604C654.342 37.2045 654.066 36.2728 653.514 35.5655C652.962 34.8409 652.22 34.2888 651.288 33.9092C650.339 33.5124 649.287 33.2364 648.131 33.0811H642.101C641.187 33.1674 640.341 33.3399 639.565 33.5987C638.771 33.8402 638.081 34.1767 637.495 34.608C636.908 35.022 636.451 35.5396 636.123 36.1607C635.778 36.7645 635.605 37.4805 635.605 38.3087C635.605 39.1713 635.778 39.9304 636.123 40.586C636.451 41.2243 636.96 41.7505 637.65 42.1646C638.323 42.5787 639.185 42.8892 640.238 43.0963C641.273 43.286 642.507 43.3809 643.938 43.3809Z" fill="black"/>
</svg>
