<svg width="687" height="145" viewBox="0 0 687 145" fill="none" xmlns="http://www.w3.org/2000/svg">
<path d="M34.9858 141.909C30.5256 141.909 26.6193 141.327 23.267 140.162C19.9148 139.026 17.0881 137.463 14.7869 135.474C12.4858 133.486 10.696 131.256 9.41761 128.784L15.6392 124.693C16.5767 126.341 17.8267 127.96 19.3892 129.551C20.9801 131.142 23.0398 132.463 25.5682 133.514C28.125 134.565 31.2642 135.091 34.9858 135.091C40.7813 135.091 45.4545 133.642 49.0057 130.744C52.5852 127.847 54.375 123.344 54.375 117.236V102.491H53.6932C52.8125 104.48 51.5483 106.469 49.9006 108.457C48.2528 110.418 46.0938 112.051 43.4233 113.358C40.7813 114.665 37.5 115.318 33.5795 115.318C28.3523 115.318 23.7074 114.026 19.6449 111.44C15.6108 108.855 12.429 105.162 10.0994 100.361C7.7983 95.5312 6.64773 89.7784 6.64773 83.1023C6.64773 76.483 7.76989 70.6591 10.0142 65.6307C12.2869 60.6023 15.4545 56.6818 19.517 53.8693C23.5795 51.0568 28.3097 49.6506 33.7074 49.6506C37.7131 49.6506 41.0369 50.3608 43.679 51.7812C46.321 53.1733 48.4375 54.9062 50.0284 56.9801C51.6477 59.054 52.9119 61.071 53.821 63.0312H54.5881V50.5455H62.0028V117.705C62.0028 123.244 60.8239 127.804 58.4659 131.384C56.108 134.963 52.8977 137.605 48.8352 139.31C44.7727 141.043 40.1563 141.909 34.9858 141.909ZM34.4744 108.372C38.679 108.372 42.2727 107.364 45.2557 105.347C48.2386 103.301 50.5256 100.375 52.1165 96.5682C53.7074 92.7614 54.5028 88.2301 54.5028 82.9744C54.5028 77.8608 53.7216 73.3295 52.1591 69.3807C50.5966 65.4034 48.3239 62.2784 45.3409 60.0057C42.3864 57.7045 38.7642 56.554 34.4744 56.554C30.0994 56.554 26.4063 57.733 23.3949 60.0909C20.3835 62.4489 18.1108 65.6307 16.5767 69.6364C15.0426 73.6136 14.2756 78.0597 14.2756 82.9744C14.2756 87.9744 15.0568 92.392 16.6193 96.2273C18.1818 100.034 20.4688 103.017 23.4801 105.176C26.4915 107.307 30.1563 108.372 34.4744 108.372ZM123.675 90.9858V50.5455H131.261V116H123.675V105.134H123.079C121.545 108.486 119.116 111.284 115.792 113.528C112.468 115.744 108.406 116.852 103.604 116.852C99.4283 116.852 95.7209 115.943 92.4822 114.125C89.2436 112.278 86.701 109.58 84.8544 106.028C83.0078 102.477 82.0845 98.1165 82.0845 92.946V50.5455H89.6697V92.4773C89.6697 97.5909 91.1754 101.71 94.1868 104.835C97.1982 107.932 101.062 109.48 105.778 109.48C108.732 109.48 111.573 108.77 114.3 107.349C117.028 105.929 119.272 103.855 121.033 101.128C122.795 98.3722 123.675 94.9915 123.675 90.9858ZM95.8061 39.2955C94.3572 39.2955 93.0788 38.7557 91.9709 37.6761C90.8913 36.5682 90.3516 35.2898 90.3516 33.8409C90.3516 32.2784 90.8913 30.9858 91.9709 29.9631C93.0788 28.9119 94.3572 28.3864 95.8061 28.3864C97.3686 28.3864 98.6612 28.9119 99.6839 29.9631C100.735 30.9858 101.261 32.2784 101.261 33.8409C101.261 35.2898 100.735 36.5682 99.6839 37.6761C98.6612 38.7557 97.3686 39.2955 95.8061 39.2955ZM117.624 39.2955C116.175 39.2955 114.897 38.7557 113.789 37.6761C112.71 36.5682 112.17 35.2898 112.17 33.8409C112.17 32.2784 112.71 30.9858 113.789 29.9631C114.897 28.9119 116.175 28.3864 117.624 28.3864C119.187 28.3864 120.479 28.9119 121.502 29.9631C122.553 30.9858 123.079 32.2784 123.079 33.8409C123.079 35.2898 122.553 36.5682 121.502 37.6761C120.479 38.7557 119.187 39.2955 117.624 39.2955ZM202.01 50.5455L178.104 116H170.007L146.101 50.5455H154.325L173.757 105.986H174.354L193.786 50.5455H202.01ZM240.969 117.364C234.862 117.364 229.577 115.943 225.117 113.102C220.657 110.233 217.205 106.27 214.762 101.213C212.347 96.1278 211.14 90.2756 211.14 83.6562C211.14 77.0653 212.347 71.2131 214.762 66.0994C217.205 60.9574 220.572 56.9375 224.862 54.0398C229.18 51.1136 234.165 49.6506 239.819 49.6506C243.37 49.6506 246.793 50.304 250.089 51.6108C253.384 52.8892 256.339 54.8636 258.952 57.5341C261.594 60.1761 263.683 63.5142 265.217 67.5483C266.751 71.554 267.518 76.2983 267.518 81.7812V85.5312H216.381V78.8409H259.762C259.762 74.6364 258.91 70.858 257.205 67.5057C255.529 64.125 253.185 61.4545 250.174 59.4943C247.191 57.5341 243.739 56.554 239.819 56.554C235.671 56.554 232.021 57.6619 228.867 59.8778C225.714 62.0937 223.242 65.0199 221.452 68.6562C219.691 72.2926 218.796 76.2699 218.768 80.5881V84.5938C218.768 89.7926 219.663 94.3381 221.452 98.2301C223.271 102.094 225.842 105.091 229.165 107.222C232.489 109.352 236.424 110.418 240.969 110.418C244.066 110.418 246.779 109.935 249.109 108.969C251.467 108.003 253.441 106.71 255.032 105.091C256.651 103.443 257.873 101.639 258.697 99.679L265.898 102.023C264.904 104.778 263.271 107.321 260.998 109.651C258.754 111.98 255.941 113.855 252.56 115.276C249.208 116.668 245.344 117.364 240.969 117.364ZM291.818 75.0909V116H284.233V50.5455H291.605V60.8153H292.287C293.821 57.4631 296.207 54.7784 299.446 52.7614C302.713 50.7159 306.747 49.6932 311.548 49.6932C315.952 49.6932 319.815 50.6165 323.139 52.4631C326.491 54.2812 329.091 56.9659 330.938 60.517C332.812 64.0682 333.75 68.429 333.75 73.5994V116H326.165V74.0682C326.165 68.6989 324.659 64.4517 321.648 61.3267C318.665 58.2017 314.659 56.6392 309.631 56.6392C306.193 56.6392 303.139 57.3778 300.469 58.8551C297.798 60.3324 295.682 62.4631 294.119 65.2472C292.585 68.0028 291.818 71.2841 291.818 75.0909ZM377.29 117.364C371.921 117.364 367.219 115.943 363.185 113.102C359.151 110.261 355.998 106.298 353.725 101.213C351.481 96.1278 350.359 90.2045 350.359 83.4432C350.359 76.7102 351.481 70.8153 353.725 65.7585C355.998 60.6733 359.165 56.7244 363.228 53.9119C367.29 51.071 372.021 49.6506 377.418 49.6506C381.396 49.6506 384.705 50.3608 387.347 51.7812C389.989 53.1733 392.106 54.9062 393.697 56.9801C395.288 59.054 396.523 61.071 397.404 63.0312H398.086V28.7273H405.714V116H398.299V103.855H397.404C396.523 105.844 395.273 107.889 393.654 109.991C392.035 112.065 389.89 113.812 387.219 115.233C384.577 116.653 381.268 117.364 377.29 117.364ZM378.185 110.418C382.418 110.418 386.026 109.267 389.009 106.966C391.992 104.636 394.265 101.44 395.827 97.3778C397.418 93.2869 398.214 88.5994 398.214 83.3153C398.214 78.0881 397.433 73.4716 395.87 69.4659C394.308 65.4318 392.035 62.2784 389.052 60.0057C386.069 57.7045 382.447 56.554 378.185 56.554C373.81 56.554 370.117 57.7472 367.106 60.1335C364.123 62.4915 361.85 65.6875 360.288 69.7216C358.754 73.7557 357.987 78.2869 357.987 83.3153C357.987 88.4006 358.768 92.9886 360.33 97.0795C361.893 101.17 364.165 104.423 367.148 106.838C370.16 109.224 373.839 110.418 378.185 110.418ZM453.782 117.364C447.674 117.364 442.39 115.943 437.93 113.102C433.469 110.233 430.018 106.27 427.575 101.213C425.16 96.1278 423.952 90.2756 423.952 83.6562C423.952 77.0653 425.16 71.2131 427.575 66.0994C430.018 60.9574 433.384 56.9375 437.674 54.0398C441.992 51.1136 446.978 49.6506 452.631 49.6506C456.183 49.6506 459.606 50.304 462.901 51.6108C466.197 52.8892 469.151 54.8636 471.765 57.5341C474.407 60.1761 476.495 63.5142 478.029 67.5483C479.563 71.554 480.33 76.2983 480.33 81.7812V85.5312H429.194V78.8409H472.575C472.575 74.6364 471.722 70.858 470.018 67.5057C468.342 64.125 465.998 61.4545 462.987 59.4943C460.004 57.5341 456.552 56.554 452.631 56.554C448.484 56.554 444.833 57.6619 441.68 59.8778C438.526 62.0937 436.055 65.0199 434.265 68.6562C432.504 72.2926 431.609 76.2699 431.58 80.5881V84.5938C431.58 89.7926 432.475 94.3381 434.265 98.2301C436.083 102.094 438.654 105.091 441.978 107.222C445.302 109.352 449.237 110.418 453.782 110.418C456.879 110.418 459.592 109.935 461.921 108.969C464.279 108.003 466.254 106.71 467.844 105.091C469.464 103.443 470.685 101.639 471.509 99.679L478.711 102.023C477.717 104.778 476.083 107.321 473.81 109.651C471.566 111.98 468.754 113.855 465.373 115.276C462.021 116.668 458.157 117.364 453.782 117.364ZM503.949 91.2841L503.864 81.3551H505.568L536.25 50.5455H545.838L515.54 80.8864L514.858 81.0142L503.949 91.2841ZM497.045 116V28.7273H504.631V116H497.045ZM537.827 116L511.236 82.3778L516.69 77.1364L547.543 116H537.827ZM578.374 117.491C574.425 117.491 570.817 116.724 567.55 115.19C564.283 113.628 561.683 111.384 559.751 108.457C557.82 105.503 556.854 101.923 556.854 97.7188C556.854 94.4801 557.464 91.7528 558.686 89.5369C559.908 87.321 561.641 85.5028 563.885 84.0824C566.129 82.6619 568.786 81.5398 571.854 80.7159C574.922 79.892 578.303 79.2528 581.996 78.7983C585.661 78.3437 588.757 77.946 591.286 77.6051C593.842 77.2642 595.788 76.7244 597.124 75.9858C598.459 75.2472 599.126 74.054 599.126 72.4062V70.8722C599.126 66.4119 597.791 62.9034 595.121 60.3466C592.479 57.7614 588.672 56.4688 583.7 56.4688C578.984 56.4688 575.135 57.5057 572.152 59.5795C569.197 61.6534 567.124 64.0966 565.93 66.9091L558.729 64.3097C560.206 60.7301 562.251 57.875 564.865 55.7443C567.479 53.5852 570.405 52.0369 573.643 51.0994C576.882 50.1335 580.163 49.6506 583.487 49.6506C585.987 49.6506 588.587 49.9773 591.286 50.6307C594.013 51.2841 596.541 52.4205 598.871 54.0398C601.2 55.6307 603.089 57.8608 604.538 60.7301C605.987 63.571 606.712 67.179 606.712 71.554V116H599.126V105.645H598.658C597.749 107.577 596.399 109.452 594.609 111.27C592.82 113.088 590.575 114.58 587.876 115.744C585.178 116.909 582.01 117.491 578.374 117.491ZM579.396 110.545C583.43 110.545 586.925 109.651 589.879 107.861C592.834 106.071 595.107 103.699 596.697 100.744C598.317 97.7614 599.126 94.4801 599.126 90.9006V81.4403C598.558 81.9801 597.607 82.4631 596.271 82.8892C594.964 83.3153 593.445 83.6989 591.712 84.0398C590.007 84.3523 588.303 84.6222 586.598 84.8494C584.893 85.0767 583.359 85.2756 581.996 85.446C578.303 85.9006 575.149 86.6108 572.536 87.5767C569.922 88.5426 567.919 89.8778 566.527 91.5824C565.135 93.2585 564.439 95.4176 564.439 98.0597C564.439 102.037 565.859 105.119 568.7 107.307C571.541 109.466 575.107 110.545 579.396 110.545ZM634.474 28.7273V116H626.889V28.7273H634.474Z" fill="#0B87DA"/>
<path d="M666.398 104.5C666.398 106.867 665.929 108.894 664.991 110.58C664.045 112.265 662.728 113.558 661.043 114.457C659.348 115.357 657.383 115.807 655.148 115.807C652.913 115.807 650.953 115.357 649.267 114.457C647.572 113.558 646.256 112.265 645.318 110.58C644.371 108.894 643.898 106.867 643.898 104.5C643.898 102.133 644.371 100.106 645.318 98.4205C646.256 96.7348 647.572 95.4422 649.267 94.5426C650.953 93.643 652.913 93.1932 655.148 93.1932C657.383 93.1932 659.348 93.643 661.043 94.5426C662.728 95.4422 664.045 96.7348 664.991 98.4205C665.929 100.106 666.398 102.133 666.398 104.5ZM660.602 104.443C660.602 103.78 660.38 103.207 659.935 102.724C659.49 102.241 658.855 101.867 658.031 101.602C657.207 101.337 656.227 101.205 655.091 101.205C653.945 101.205 652.965 101.337 652.151 101.602C651.327 101.867 650.692 102.241 650.247 102.724C649.802 103.207 649.58 103.78 649.58 104.443C649.58 105.144 649.802 105.745 650.247 106.247C650.692 106.749 651.327 107.133 652.151 107.398C652.965 107.663 653.945 107.795 655.091 107.795C656.227 107.795 657.207 107.663 658.031 107.398C658.855 107.133 659.49 106.749 659.935 106.247C660.38 105.745 660.602 105.144 660.602 104.443ZM666 79.6114H644.182V71.9977H648.33V71.7705C646.795 71.3727 645.673 70.743 644.963 69.8812C644.253 69.01 643.898 67.992 643.898 66.8273C643.898 66.4864 643.926 66.1502 643.983 65.8187C644.03 65.4778 644.101 65.1511 644.196 64.8386H650.886C650.754 65.2269 650.654 65.7051 650.588 66.2733C650.522 66.8415 650.489 67.3292 650.489 67.7364C650.489 68.5034 650.664 69.1947 651.014 69.8102C651.355 70.4163 651.838 70.8945 652.463 71.2449C653.079 71.5953 653.803 71.7705 654.636 71.7705H666V79.6114ZM674.636 42.6063C674.636 44.7938 674.324 46.6688 673.699 48.2313C673.083 49.7843 672.231 50.9917 671.142 51.8534C670.063 52.7057 668.822 53.1839 667.42 53.2881V45.7313C667.884 45.6555 668.259 45.4661 668.543 45.1631C668.827 44.86 669.03 44.4718 669.153 43.9983C669.286 43.5153 669.352 42.9756 669.352 42.379C669.352 41.3657 669.106 40.5277 668.614 39.8648C668.121 39.1924 667.231 38.8563 665.943 38.8563H662.25V39.0835C662.989 39.3676 663.618 39.8032 664.139 40.3903C664.651 40.9775 665.044 41.683 665.318 42.5068C665.583 43.3307 665.716 44.235 665.716 45.2199C665.716 46.7729 665.356 48.2028 664.636 49.5097C663.917 50.807 662.776 51.8487 661.213 52.6347C659.651 53.4112 657.61 53.7994 655.091 53.7994C652.458 53.7994 650.318 53.3922 648.67 52.5778C647.023 51.754 645.815 50.6934 645.048 49.396C644.281 48.0892 643.898 46.7161 643.898 45.2767C643.898 44.1972 644.087 43.2502 644.466 42.4358C644.835 41.6214 645.332 40.9396 645.957 40.3903C646.573 39.8411 647.25 39.4244 647.989 39.1403V38.9699H644.182V31.129H665.943C667.79 31.129 669.357 31.6072 670.645 32.5636C671.942 33.5106 672.932 34.8458 673.614 36.5693C674.295 38.2928 674.636 40.3051 674.636 42.6063ZM660.148 42.3222C660.148 41.6025 659.949 40.9869 659.551 40.4756C659.144 39.9547 658.566 39.557 657.818 39.2824C657.061 38.9983 656.152 38.8563 655.091 38.8563C654.011 38.8563 653.088 38.9983 652.321 39.2824C651.545 39.557 650.953 39.9547 650.545 40.4756C650.129 40.9869 649.92 41.6025 649.92 42.3222C649.92 43.0419 650.129 43.6574 650.545 44.1688C650.953 44.6706 651.545 45.0589 652.321 45.3335C653.088 45.5987 654.011 45.7313 655.091 45.7313C656.17 45.7313 657.089 45.5987 657.847 45.3335C658.595 45.0589 659.168 44.6706 659.565 44.1688C659.954 43.6574 660.148 43.0419 660.148 42.3222Z" fill="#0B87DA"/>
</svg>
